<svg version="1.2" baseProfile="tiny-ps" xmlns="http://www.w3.org/2000/svg" viewBox="0 0 220 220" width="300" height="300">
	<title>DUBIEL-VITRUM-logo-color-eps</title>
	<defs>
		<clipPath clipPathUnits="userSpaceOnUse" id="cp1">
			<path d="M0 0L220 0L220 220L0 220Z" />
		</clipPath>
	</defs>
	<style>
		tspan { white-space:pre }
		.shp0 { fill: #ffffff } 
		.shp1 { fill: #185a20 } 
	</style>
	<g id="Page 1" clip-path="url(#cp1)">
		<path id="Path 1" class="shp0" d="M219.49 220.01L0.86 220.01L0.86 1.39L219.49 1.39L219.49 220.01Z" />
		<path id="Path 2" class="shp1" d="M5.03 5.56L215.32 5.56L215.32 215.84L5.03 215.84L5.03 5.56Z" />
		<path id="Path 3" fill-rule="evenodd" class="shp0" d="M33.16 172.83C34.51 172.83 35.77 173.04 36.93 173.47C38.1 173.9 39.1 174.54 39.95 175.4C40.8 176.27 41.47 177.34 41.95 178.63C42.43 179.93 42.67 181.44 42.67 183.18C42.67 184.71 42.47 186.11 42.08 187.4C41.69 188.69 41.1 189.81 40.31 190.75C39.51 191.69 38.53 192.43 37.35 192.96C36.16 193.5 34.77 193.77 33.16 193.77L24.13 193.77L24.13 172.83L33.16 172.83ZM32.84 189.9C33.5 189.9 34.15 189.79 34.77 189.58C35.4 189.36 35.96 189 36.45 188.5C36.94 188 37.33 187.36 37.62 186.55C37.92 185.75 38.07 184.77 38.07 183.62C38.07 182.56 37.96 181.61 37.75 180.76C37.55 179.91 37.21 179.18 36.74 178.57C36.28 177.97 35.65 177.5 34.88 177.18C34.11 176.86 33.15 176.7 32.02 176.7L28.73 176.7L28.73 189.9L32.84 189.9ZM54.52 193.77L54.52 191.65L54.43 191.65C53.9 192.53 53.21 193.17 52.38 193.57C51.53 193.96 50.68 194.15 49.8 194.15C48.68 194.15 47.76 194 47.05 193.71C46.34 193.41 45.78 193 45.37 192.46C44.96 191.92 44.67 191.27 44.5 190.5C44.34 189.73 44.25 188.87 44.25 187.93L44.25 178.6L48.42 178.6L48.42 187.17C48.42 188.42 48.61 189.35 49 189.97C49.39 190.59 50.09 190.89 51.09 190.89C52.22 190.89 53.04 190.55 53.55 189.88C54.06 189.21 54.32 188.1 54.32 186.55L54.32 178.6L58.48 178.6L58.48 193.77L54.52 193.77ZM64.64 172.83L64.64 180.45L64.7 180.45C65.2 179.67 65.89 179.1 66.76 178.74C67.64 178.37 68.54 178.19 69.48 178.19C70.24 178.19 70.99 178.35 71.74 178.66C72.48 178.98 73.15 179.46 73.74 180.1C74.34 180.74 74.83 181.57 75.2 182.57C75.57 183.59 75.75 184.78 75.75 186.17C75.75 187.56 75.57 188.76 75.2 189.76C74.83 190.77 74.34 191.6 73.74 192.24C73.15 192.89 72.48 193.37 71.74 193.68C70.99 193.99 70.24 194.15 69.48 194.15C68.36 194.15 67.37 193.97 66.48 193.62C65.61 193.27 64.94 192.67 64.49 191.83L64.43 191.83L64.43 193.77L60.47 193.77L60.47 172.83L64.64 172.83ZM71.38 184.35C71.25 183.76 71.04 183.25 70.74 182.8C70.45 182.35 70.08 181.99 69.64 181.73C69.2 181.46 68.67 181.33 68.04 181.33C67.44 181.33 66.91 181.46 66.46 181.73C66 181.99 65.64 182.35 65.34 182.8C65.05 183.25 64.84 183.76 64.7 184.35C64.56 184.94 64.49 185.55 64.49 186.2C64.49 186.83 64.56 187.43 64.7 188.02C64.84 188.61 65.05 189.12 65.34 189.58C65.64 190.02 66 190.38 66.46 190.64C66.91 190.91 67.44 191.04 68.04 191.04C68.67 191.04 69.2 190.91 69.64 190.64C70.08 190.38 70.45 190.02 70.74 189.58C71.04 189.12 71.25 188.61 71.38 188.02C71.53 187.43 71.59 186.83 71.59 186.2C71.59 185.55 71.53 184.94 71.38 184.35ZM77.34 176.26L77.34 172.83L81.5 172.83L81.5 176.26L77.34 176.26ZM81.5 178.6L81.5 193.77L77.34 193.77L77.34 178.6L81.5 178.6ZM88.08 190.13C88.7 190.74 89.6 191.04 90.78 191.04C91.62 191.04 92.34 190.83 92.94 190.41C93.55 189.99 93.93 189.55 94.06 189.08L97.73 189.08C97.14 190.89 96.24 192.19 95.03 192.98C93.82 193.76 92.35 194.15 90.63 194.15C89.44 194.15 88.36 193.96 87.4 193.58C86.45 193.2 85.63 192.65 84.97 191.95C84.31 191.25 83.79 190.4 83.43 189.42C83.07 188.45 82.89 187.37 82.89 186.2C82.89 185.06 83.07 184.01 83.44 183.03C83.81 182.05 84.34 181.21 85.03 180.5C85.71 179.78 86.53 179.22 87.48 178.81C88.42 178.4 89.48 178.19 90.63 178.19C91.92 178.19 93.05 178.44 94 178.94C94.96 179.44 95.75 180.11 96.36 180.95C96.98 181.79 97.42 182.75 97.7 183.83C97.97 184.9 98.07 186.02 97.99 187.2L87.05 187.2C87.11 188.55 87.45 189.52 88.08 190.13ZM92.79 182.15C92.29 181.61 91.53 181.33 90.52 181.33C89.85 181.33 89.3 181.45 88.85 181.67C88.42 181.89 88.06 182.17 87.8 182.5C87.53 182.84 87.35 183.19 87.24 183.56C87.13 183.93 87.07 184.26 87.05 184.56L93.83 184.56C93.63 183.5 93.29 182.7 92.79 182.15ZM103.56 172.83L103.56 193.77L99.4 193.77L99.4 172.83L103.56 172.83ZM117.06 193.77L110.28 172.83L115 172.83L119.67 187.55L119.72 187.55L124.45 172.83L133.07 172.83L133.07 176.26L128.91 176.26L128.91 173.7L122.24 193.77L117.06 193.77ZM133.07 178.6L133.07 193.77L128.91 193.77L128.91 178.6L133.07 178.6ZM144.1 178.6L144.1 181.39L141.05 181.39L141.05 188.9C141.05 189.6 141.17 190.07 141.4 190.3C141.64 190.54 142.11 190.66 142.81 190.66C143.05 190.66 143.27 190.65 143.48 190.63C143.7 190.61 143.91 190.58 144.1 190.54L144.1 193.77C143.75 193.83 143.36 193.87 142.92 193.89C142.5 193.9 142.08 193.91 141.67 193.91C141.02 193.91 140.41 193.87 139.83 193.78C139.25 193.7 138.75 193.52 138.31 193.27C137.87 193.02 137.52 192.65 137.26 192.18C137.01 191.72 136.88 191.1 136.88 190.34L136.88 181.39L134.36 181.39L134.36 178.6L136.88 178.6L136.88 174.05L141.05 174.05L141.05 178.6L144.1 178.6ZM149.47 178.6L149.47 181.42L149.53 181.42C149.72 180.95 149.99 180.51 150.32 180.11C150.66 179.71 151.03 179.37 151.46 179.09C151.9 178.8 152.35 178.59 152.84 178.42C153.33 178.27 153.84 178.19 154.37 178.19C154.64 178.19 154.95 178.24 155.28 178.34L155.28 182.21C155.08 182.17 154.85 182.14 154.57 182.11C154.3 182.08 154.04 182.06 153.78 182.06C153.02 182.06 152.37 182.19 151.85 182.44C151.31 182.7 150.9 183.05 150.57 183.49C150.25 183.92 150.02 184.44 149.88 185.03C149.74 185.61 149.67 186.25 149.67 186.93L149.67 193.77L145.51 193.77L145.51 178.6L149.47 178.6ZM166.69 193.77L166.69 191.65L166.6 191.65C166.07 192.53 165.39 193.17 164.54 193.57C163.7 193.96 162.85 194.15 161.97 194.15C160.85 194.15 159.94 194 159.22 193.71C158.51 193.41 157.95 193 157.54 192.46C157.12 191.92 156.84 191.27 156.67 190.5C156.5 189.73 156.42 188.87 156.42 187.93L156.42 178.6L160.59 178.6L160.59 187.17C160.59 188.42 160.78 189.35 161.17 189.97C161.56 190.59 162.26 190.89 163.25 190.89C164.39 190.89 165.21 190.55 165.72 189.88C166.23 189.21 166.48 188.1 166.48 186.55L166.48 178.6L170.65 178.6L170.65 193.77L166.69 193.77ZM176.1 178.6L176.1 180.65L176.16 180.65C176.71 179.87 177.37 179.27 178.15 178.84C178.91 178.41 179.8 178.19 180.79 178.19C181.75 178.19 182.63 178.38 183.42 178.75C184.22 179.12 184.82 179.78 185.23 180.72C185.68 180.05 186.29 179.47 187.06 178.96C187.83 178.44 188.75 178.19 189.8 178.19C190.6 178.19 191.35 178.29 192.03 178.49C192.72 178.68 193.31 178.99 193.79 179.42C194.28 179.86 194.66 180.42 194.93 181.11C195.21 181.8 195.35 182.64 195.35 183.62L195.35 193.77L191.18 193.77L191.18 185.17C191.18 184.66 191.16 184.18 191.12 183.74C191.08 183.29 190.98 182.89 190.8 182.56C190.63 182.23 190.36 181.97 190.02 181.78C189.68 181.58 189.22 181.48 188.63 181.48C188.05 181.48 187.57 181.59 187.21 181.82C186.85 182.04 186.56 182.33 186.36 182.69C186.15 183.05 186.02 183.47 185.95 183.92C185.88 184.39 185.84 184.85 185.84 185.32L185.84 193.77L181.67 193.77L181.67 185.26C181.67 184.81 181.67 184.37 181.65 183.92C181.63 183.49 181.54 183.08 181.4 182.71C181.25 182.34 181.01 182.04 180.66 181.82C180.32 181.59 179.82 181.48 179.15 181.48C178.96 181.48 178.7 181.52 178.38 181.61C178.06 181.7 177.74 181.86 177.44 182.11C177.13 182.35 176.88 182.7 176.66 183.16C176.45 183.62 176.34 184.22 176.34 184.97L176.34 193.77L172.18 193.77L172.18 178.6L176.1 178.6ZM167.2 26.66L167.2 152.21L147.56 129.44L127.74 106.44C127.89 107.83 127.95 109.23 127.95 110.66C127.95 133.61 109.35 152.21 86.41 152.21C63.44 152.21 44.84 133.61 44.84 110.66C44.84 87.71 63.44 69.1 86.41 69.1C89.94 69.1 93.36 69.54 96.65 70.39L59.73 26.88L85.65 26.88L147.56 99.37L147.56 26.66L167.2 26.66ZM108.32 110.66C108.32 98.55 98.52 88.74 86.41 88.74C74.28 88.74 64.48 98.55 64.48 110.66C64.48 122.77 74.28 132.57 86.41 132.57C98.52 132.57 108.32 122.77 108.32 110.66Z" />
	</g>
</svg>